<svg xmlns="http://www.w3.org/2000/svg" width="890" height="118" viewBox="0 0 890 118">
  <g fill="none" transform="translate(.375 .156)">
    <path fill="#212121" d="M56.25,51.5625 L75.5859375,51.5625 L77.4164136,51.5685937 C84.3523723,51.615312 90.3583731,51.9306611 95.4345703,52.5146484 C100.952176,53.1494172 105.603008,54.0893492 109.387207,55.3344727 C113.171406,56.5795961 116.186512,58.1298735 118.432617,59.9853516 C120.678722,61.8408296 122.412103,63.9526249 123.632812,66.3208008 C124.853522,68.6889767 125.646971,71.337876 126.013184,74.2675781 C126.379396,77.1972803 126.5625,80.3710767 126.5625,83.7890625 C126.5625,87.2070483 126.257327,90.4174655 125.646973,93.4204102 C125.036618,96.4233549 123.950203,99.1699094 122.387695,101.660156 C120.825187,104.150403 118.701185,106.372061 116.015625,108.325195 C113.330065,110.27833 109.91213,111.93847 105.761719,113.305664 C101.611307,114.672858 96.6186815,115.710446 90.7836914,116.418457 C84.9487013,117.126468 78.1250391,117.480469 70.3125,117.480469 L51.5625,117.480469 C44.5312148,117.480469 38.3789326,117.211917 33.1054688,116.674805 C27.8320049,116.137693 23.2910347,115.31983 19.4824219,114.221191 C15.6738091,113.122553 12.5244265,111.730965 10.0341797,110.046387 C7.54393286,108.361808 5.55420667,106.384289 4.06494141,104.11377 C2.57567615,101.84325 1.53808887,99.2553856 0.952148438,96.3500977 C0.366208008,93.4448097 0.0732421875,90.2343926 0.0732421875,86.71875 L14.1357422,86.71875 C14.1357422,91.1133032 14.7705015,94.5556516 16.0400391,97.0458984 C17.3095767,99.5361453 19.409165,101.403802 22.3388672,102.648926 C25.2685693,103.894049 29.1137457,104.675291 33.8745117,104.992676 L35.0388909,105.065801 C39.5858939,105.334435 45.0937177,105.46875 51.5625,105.46875 L70.3125,105.46875 L72.0490197,105.462771 C79.4816315,105.410954 85.7142606,105.022325 90.7470703,104.296875 C96.1670193,103.515621 100.488265,102.270516 103.710938,100.561523 C106.93361,98.8525305 109.204095,96.6186661 110.522461,93.8598633 C111.840827,91.1010604 112.5,87.7441604 112.5,83.7890625 C112.5,79.8339646 112.048344,76.5380991 111.14502,73.9013672 C110.241695,71.2646353 108.459486,69.1650469 105.79834,67.6025391 C103.137194,66.0400313 99.3896726,64.9292025 94.5556641,64.2700195 C89.8883455,63.633567 83.8327872,63.304372 76.3888184,63.2824257 L56.25,63.28125 C47.656207,63.28125 40.2954408,62.9638704 34.1674805,62.3291016 C28.0395201,61.6943328 22.9004114,60.7788146 18.75,59.5825195 C14.5995886,58.3862245 11.2793093,56.8969816 8.7890625,55.1147461 C6.29881567,53.3325106 4.40674475,51.2939568 3.11279297,48.9990234 C1.81884119,46.7040901 0.976564453,44.1528461 0.5859375,41.3452148 C0.195310547,38.5375836 0,35.4980632 0,32.2265625 C0,28.8085767 0.305172729,25.6347803 0.915527344,22.7050781 C1.52588196,19.775376 2.66112451,17.1264767 4.32128906,14.7583008 C5.98145361,12.3901249 8.25193872,10.2783296 11.1328125,8.42285156 C14.0136863,6.56737354 17.7123798,5.01709607 22.2290039,3.77197266 C26.7456281,2.52684924 32.1777026,1.58691724 38.5253906,0.952148438 C44.6191711,0.342770391 51.7478535,0.0258981937 59.911636,0.00152342288 L75,0 C82.0312852,0 88.1835674,0.256345093 93.4570312,0.769042969 C98.7304951,1.28174084 103.271465,2.08739685 107.080078,3.18603516 C110.888691,4.28467346 114.05028,5.65184729 116.564941,7.28759766 C119.079602,8.92334802 121.081536,10.8764535 122.570801,13.1469727 C124.060066,15.4174918 125.097653,17.9931497 125.683594,20.8740234 C126.269534,23.7548972 126.5625,26.9531074 126.5625,30.46875 L112.5,30.46875 C112.5,26.0741968 111.865241,22.6318484 110.595703,20.1416016 C109.326166,17.6513547 107.226577,15.7836976 104.296875,14.5385742 C101.367173,13.2934508 97.5097896,12.5122086 92.7246094,12.1948242 L91.5049191,12.1187843 C87.1541199,11.8642158 81.94354,11.7311476 75.873061,11.7195765 L60.9375,11.71875 C51.5624531,11.71875 43.8476865,12.0483365 37.7929688,12.7075195 C31.738251,13.3667025 26.9531426,14.4775313 23.4375,16.0400391 C19.9218574,17.6025469 17.4804756,19.7021353 16.1132812,22.3388672 C14.7460869,24.9755991 14.0625,28.2714646 14.0625,32.2265625 C14.0625,34.667981 14.2333967,36.8408108 14.5751953,38.7451172 C14.9169939,40.6494236 15.6127877,42.3217701 16.6625977,43.762207 C17.7124076,45.2026439 19.1894436,46.4111279 21.09375,47.3876953 C22.9980564,48.3642627 25.5126797,49.1699187 28.6376953,49.8046875 C31.589099,50.4041914 35.1610917,50.8403628 39.3537701,51.1132133 L40.1000977,51.159668 C44.6167218,51.428224 49.9999687,51.5625 56.25,51.5625 Z M234.521484,2.34375 C241.503941,2.34375 247.399878,2.64892273 252.209473,3.25927734 C257.019067,3.86963196 260.986312,4.78515015 264.111328,6.00585938 C267.236344,7.2265686 269.641105,8.74022534 271.325684,10.546875 C273.010262,12.3535247 274.24316,14.4775269 275.024414,16.9189453 C275.805668,19.3603638 276.257324,22.0947114 276.379395,25.1220703 C276.501465,28.1494292 276.5625,31.4941223 276.5625,35.15625 C276.5625,38.9648628 276.477052,42.4804526 276.306152,45.703125 C276.135253,48.9257974 275.573735,51.8432487 274.621582,54.4555664 C273.669429,57.0678842 272.155772,59.3627831 270.080566,61.340332 C268.005361,63.317881 265.051289,64.9658137 261.218262,66.2841797 C257.385235,67.6025457 252.526885,68.6035122 246.643066,69.2871094 C240.969384,69.9462924 234.035872,70.2876502 225.842336,70.3111921 L164.0625,70.3125 L164.0625,114.84375 L150,114.84375 L150,2.34375 L234.521484,2.34375 Z M164.0625,14.0625 L164.0625,58.59375 L225.736371,58.593127 C231.632414,58.5839891 236.623727,58.4743344 240.710449,58.2641602 L240.710449,58.2641602 L241.378863,58.2279447 C245.352216,58.0015223 248.657213,57.6107655 251.293945,57.0556641 C254.077162,56.4697236 256.225578,55.6396538 257.739258,54.5654297 C259.252937,53.4912056 260.363766,52.0752041 261.071777,50.3173828 C261.779789,48.5595615 262.194824,46.4477662 262.316895,43.9819336 C262.414551,42.0092675 262.473145,39.7319406 262.492676,37.1499077 L262.492676,37.1499077 L262.5,35.15625 C262.5,31.982406 262.438965,29.2480583 262.316895,26.953125 C262.194824,24.6581917 261.779789,22.7295 261.071777,21.1669922 C260.363766,19.6044844 259.252937,18.3593796 257.739258,17.4316406 C256.225578,16.5039016 254.077162,15.783694 251.293945,15.2709961 C248.803698,14.8122664 245.717375,14.5001272 242.0349,14.3345715 L242.0349,14.3345715 L240.710449,14.2822266 C236.809487,14.1484793 232.084301,14.0757915 226.534769,14.0641614 L226.534769,14.0641614 L164.0625,14.0625 Z"/>
    <path fill="#921616" d="M295.3125,114.84375 L295.3125,2.34375 L309.375,2.34375 L309.375,103.125 L398.4375,103.125 L398.4375,114.84375 L295.3125,114.84375 Z M412.5,2.34375 L431.25,2.34375 L482.8125,57.421875 L534.375,2.34375 L553.125,2.34375 L489.84375,67.96875 L489.84375,114.84375 L475.78125,114.84375 L475.78125,67.96875 L412.5,2.34375 Z M592.382812,114.84375 L578.320312,114.84375 L578.320312,2.34375 L603.00293,2.34375 L706.12793,100.78125 L706.12793,2.34375 L720.19043,2.34375 L720.19043,114.84375 L701.44043,114.84375 L592.382812,14.0625 L592.382812,114.84375 Z M822.802734,55.5175781 L888.94043,114.84375 L869.018555,114.84375 L812.988281,64.5996094 L758.862305,114.84375 L738.94043,114.84375 L802.880859,55.5175781 L743.62793,2.34375 L763.549805,2.34375 L812.62207,46.4355469 L860.15625,2.34375 L880.078125,2.34375 L822.802734,55.5175781 Z"/>
  </g>
</svg>
