<svg xmlns="http://www.w3.org/2000/svg" width="170" height="170" viewBox="0 0 170 170">
  <path fill="#921616" d="M1694,106 C1740.9442,106 1779,144.055796 1779,191 C1779,237.944204 1740.9442,276 1694,276 C1647.0558,276 1609,237.944204 1609,191 C1609,144.055796 1647.0558,106 1694,106 Z M1700.8559,232 L1700.66328,232.13272 C1684.94826,242.845514 1667.19542,250.793613 1648,254.736717 C1660.85657,264.335926 1676.68731,270 1693.80755,270 C1716.41066,270 1736.76608,260.127074 1751,244.355422 C1746.5202,241.958587 1741.88627,238.881226 1737.32498,235.174532 C1724.4681,235.578301 1712.37565,234.628221 1700.8559,232 Z M1639.1384,196 L1638.95199,196.344207 C1633.80855,205.976775 1629.4212,216.659217 1626,228.473582 L1626,228.477509 C1629.81446,235.354269 1634.64797,241.595345 1640.29889,247 C1664.02974,243.31121 1682.36809,237.949515 1697,230.706969 L1696.99667,230.705797 C1692.60382,229.552815 1688.29235,228.152032 1684.05126,226.485583 C1681.99878,229.289415 1678.66809,231.113173 1674.9083,231.113173 C1668.67068,231.113173 1663.61408,226.093444 1663.61408,219.901294 C1663.61408,218.667323 1663.81489,217.479912 1664.18584,216.369508 C1655.63516,210.952409 1647.32062,204.2185 1639.1384,196 Z M1759,233 C1752.47571,233.794121 1746.14935,234.339678 1740,234.60406 C1743.76038,237.512674 1747.72749,239.997325 1751.82274,242 C1754.44869,239.183883 1756.84958,236.176068 1759,233 Z M1719.86047,218 L1719.54764,218.259119 C1715.54837,221.568933 1711.36118,224.714238 1707,227.669084 C1713.80278,228.140561 1721.10667,228.105718 1729,227.580644 C1725.81127,224.662195 1722.73647,221.462346 1719.86047,218 Z M1763.19782,155 L1763.12386,155.193393 C1760.97044,160.790604 1758.44576,166.330237 1755.57425,171.762533 C1757.64165,173.796078 1758.92534,176.630521 1758.92534,179.765534 C1758.92534,185.95673 1753.91887,190.975687 1747.74307,190.975687 C1746.45817,190.975687 1745.22389,190.758434 1744.07478,190.358573 C1737.91587,198.980606 1730.85185,207.131197 1723,214.57164 C1725.83168,219.082694 1729.01747,223.246437 1732.47523,227 C1742.51816,226.107545 1753.51173,224.373318 1765.63514,221.830446 L1765.64109,221.828614 C1769.73216,212.372455 1772,201.939572 1772,190.975687 C1772,177.992459 1768.81984,165.753848 1763.19782,155 Z M1704.22549,132 C1696.97224,135.457743 1689.78394,139.596448 1682.82741,144.484146 C1684.06998,146.605902 1684.78204,149.077539 1684.78204,151.716498 C1684.78204,159.597004 1678.43225,165.985416 1670.59938,165.985416 C1667.1778,165.985416 1664.03921,164.766411 1661.58926,162.736522 C1654.03183,170.638025 1647.07084,179.730433 1641,190.130031 C1648.2184,199.759364 1655.82557,207.453834 1664.29915,213.312102 L1664.30059,213.308708 C1666.33087,210.368805 1669.71187,208.444147 1673.53969,208.444147 C1679.74867,208.444147 1684.78204,213.508133 1684.78204,219.754875 C1684.78204,220.950368 1684.59769,222.102541 1684.25603,223.18419 L1684.25371,223.187107 C1689.8424,225.006611 1695.81141,226.271968 1702.24472,227 C1708.10104,223.546562 1713.3064,219.725824 1718,215.520452 C1702.92526,194.910269 1693.8884,166.07888 1704.22549,132 Z M1618.3542,172 L1618.25036,172.407372 C1616.78001,178.389972 1616,184.645432 1616,191.083746 C1616,200.171144 1617.55395,208.894258 1620.40969,217 C1623.91805,208.859178 1628.3701,200.067828 1634,191.186213 C1628.7471,185.451958 1623.54116,179.07217 1618.3542,172 Z M1732.03151,123 L1731.45014,123.153903 C1726.811,124.400952 1722.1139,125.90283 1717.40473,127.677847 L1717.40041,127.67811 C1703.4455,159.665804 1708.22136,191.039086 1721.88221,214 C1729.25161,206.817534 1735.31531,198.586329 1740.69116,189.227457 C1738.08076,187.149887 1736.4049,183.926147 1736.4049,180.306365 C1736.4049,174.042159 1741.42377,168.964017 1747.61486,168.964017 C1748.62865,168.964017 1749.61101,169.100182 1750.54505,169.355424 C1753.42251,162.757228 1756.19489,155.722405 1759,148.235851 C1752.14574,137.799214 1742.89003,129.119106 1732.03151,123 Z M1693.82713,113 C1661.77437,113 1634.20656,132.011343 1622,159.265915 C1627.12326,168.91484 1632.22035,177.47995 1637.48346,185 C1643.49907,176.428401 1650.67087,167.88864 1659.2113,159.879954 C1657.70657,157.636527 1656.82935,154.944035 1656.82935,152.048697 C1656.82935,144.223865 1663.23637,137.880586 1671.13981,137.880586 C1675.29716,137.880586 1679.04046,139.635735 1681.65498,142.438427 C1689.01106,137.744467 1697.08057,133.478314 1705.93035,129.798496 C1707.54433,124.995992 1709.55316,120.09152 1711.99411,115.09352 L1712,115.092298 C1706.16725,113.724106 1700.0826,113 1693.82713,113 Z M1722.40501,119 L1721.58154,120.582457 C1720.66018,122.38875 1719.80027,124.195094 1719,126 L1719.00336,125.999896 C1722.54618,124.763144 1726.21038,123.6313 1730,122.614599 C1727.54804,121.261476 1725.01298,120.053033 1722.40501,119 Z" transform="translate(-1609 -106)"/>
</svg>
